<svg width="22" height="20" viewBox="0 0 22 20" fill="none" xmlns="http://www.w3.org/2000/svg">
<path fill-rule="evenodd" clip-rule="evenodd" d="M5.08485 1.38852C4.91395 0.579169 4.19972 0 3.37252 0H1C0.447715 0 0 0.447715 0 1C0 1.55228 0.447716 2 1 2H1.78288C2.62095 2 3.34588 2.5837 3.5247 3.40246L5.98598 14.672C5.98669 14.6753 5.98958 14.6776 5.99291 14.6776C5.99683 14.6776 6 14.6808 6 14.6847V14.8388C6 14.9278 6.07217 15 6.1612 15H18.7769C18.9001 15 19 14.9001 19 14.7769C19 14.7603 19.0019 14.7437 19.0055 14.7275L21.1932 5.09095C21.3608 4.5492 20.9559 4 20.3888 4H8.07072C6.66052 4 5.4407 3.01783 5.1398 1.64011L5.08485 1.38852ZM18.1551 9.66414C18.5812 7.78704 17.1543 6 15.2295 6H9.81792C7.90316 6 6.47845 7.76944 6.88701 9.64011L7.10541 10.6401C7.4063 12.0178 8.62613 13 10.0363 13H15.0025C16.4035 13 17.6179 12.0303 17.928 10.6641L18.1551 9.66414Z" fill="#787878"/>
<path d="M9 20C10.1046 20 11 19.1046 11 18C11 16.8954 10.1046 16 9 16C7.89543 16 7 16.8954 7 18C7 19.1046 7.89543 20 9 20Z" fill="#787878"/>
<path d="M18 18C18 19.1046 17.1046 20 16 20C14.8954 20 14 19.1046 14 18C14 16.8954 14.8954 16 16 16C17.1046 16 18 16.8954 18 18Z" fill="#787878"/>
<path d="M20 5H5L7 14H18L20 5Z" fill="#787878"/>
</svg>
