<svg width="12" height="8" viewBox="0 0 12 8" fill="none" xmlns="http://www.w3.org/2000/svg">
<path d="M7.12847 7.41054L11.6784 1.49356C11.8887 1.2203 12 0.944975 12 0.716126C12 0.273688 11.6011 -1.7485e-08 10.9335 -4.67526e-08C10.9335 -4.67526e-08 8.01159 1.48873 6.01662 1.48873C4.02164 1.48873 1.09971 -4.77852e-07 1.09971 -4.77852e-07C0.432858 -5.07086e-07 0.0347824 0.273343 0.0347824 0.714746C0.0347824 0.94394 0.146167 1.21487 0.357021 1.48873L4.9069 7.40847C5.19998 7.78917 5.59438 8 6.01792 8C6.44118 8.00009 6.83548 7.79167 7.12847 7.41054Z" fill="#787878"/>
</svg>
