<svg width="34" height="34" viewBox="0 0 34 34" fill="none" xmlns="http://www.w3.org/2000/svg">
<rect width="34" height="34" rx="10" fill="white"/>
<path fill-rule="evenodd" clip-rule="evenodd" d="M17 14C15.3431 14 14 15.3431 14 17C14 18.6569 15.3431 20 17 20C18.6569 20 20 18.6569 20 17C20 15.3431 18.6569 14 17 14ZM16 17C16 17.5523 16.4477 18 17 18C17.5523 18 18 17.5523 18 17C18 16.4477 17.5523 16 17 16C16.4477 16 16 16.4477 16 17Z" fill="#C80F2E"/>
<path d="M10 17C10 13.134 13.134 10 17 10V12C14.2386 12 12 14.2386 12 17H10Z" fill="#C80F2E"/>
<path d="M17 22C19.7614 22 22 19.7614 22 17H24C24 20.866 20.866 24 17 24V22Z" fill="#C80F2E"/>
<path fill-rule="evenodd" clip-rule="evenodd" d="M17 6C10.9249 6 6 10.9249 6 17C6 23.0751 10.9249 28 17 28C23.0751 28 28 23.0751 28 17C28 10.9249 23.0751 6 17 6ZM8 17C8 21.9706 12.0294 26 17 26C21.9706 26 26 21.9706 26 17C26 12.0294 21.9706 8 17 8C12.0294 8 8 12.0294 8 17Z" fill="#C80F2E"/>
</svg>
